<svg width="64" height="64" viewBox="0 0 64 64" fill="none" xmlns="http://www.w3.org/2000/svg">
<path d="M11.2592 16.5333H52.7407M11.2592 16.5333V44.9778H52.7407V16.5333M11.2592 16.5333V27.9111L13.4823 26.844C15.7094 25.775 18.3661 26.2003 20.1481 27.9111C21.8862 29.5797 24.5412 29.8403 26.5706 28.5415L27.5555 27.9111C30.2648 26.1772 33.7351 26.1772 36.4444 27.9111L37.4294 28.5415C39.4588 29.8403 42.1137 29.5797 43.8518 27.9111C45.6339 26.2003 48.2906 25.775 50.5176 26.844L52.7407 27.9111V16.5333M20.1481 16.5333C21.7845 16.5333 23.1111 15.2598 23.1111 13.6889C23.1111 12.6416 22.1234 10.7453 20.1481 8C18.1728 10.7453 17.1852 12.6416 17.1852 13.6889C17.1852 15.2598 18.5117 16.5333 20.1481 16.5333ZM32 16.5333C33.6364 16.5333 34.9629 15.2598 34.9629 13.6889C34.9629 12.6416 33.9753 10.7453 32 8C30.0247 10.7453 29.037 12.6416 29.037 13.6889C29.037 15.2598 30.3636 16.5333 32 16.5333ZM43.8518 16.5333C45.4882 16.5333 46.8148 15.2598 46.8148 13.6889C46.8148 12.6416 45.8271 10.7453 43.8518 8C41.8765 10.7453 40.8889 12.6416 40.8889 13.6889C40.8889 15.2598 42.2154 16.5333 43.8518 16.5333ZM11.0222 50.6667H52.9778C56.1196 50.6667 58.6666 48.1197 58.6666 44.9778H5.33331C5.33331 48.1197 7.88031 50.6667 11.0222 50.6667Z" stroke="black" stroke-width="2" stroke-linejoin="round"/>
</svg>
